<?xml version="1.0" encoding="UTF-8"?>
<svg width="18px" height="18px" viewBox="0 0 18 18" version="1.1" xmlns="http://www.w3.org/2000/svg" xmlns:xlink="http://www.w3.org/1999/xlink">
    <!-- Generator: Sketch 44 (41411) - http://www.bohemiancoding.com/sketch -->
    <title>drive-document</title>
    <desc>Created with Sketch.</desc>
    <defs></defs>
    <g id="Setting-3New" stroke="none" stroke-width="1" fill="none" fill-rule="evenodd">
        <g id="NoChooseElement" transform="translate(-486.000000, -385.000000)" fill="#767676">
            <g id="4Buttons" transform="translate(290.000000, 374.000000)">
                <g id="Button_ChangeTemplate" transform="translate(180.000000, 0.000000)">
                    <g id="drive-document" transform="translate(16.000000, 11.000000)">
                        <path d="M16,0 L2,0 C0.9,0 0,0.9 0,2 L0,16 C0,17.1 0.9,18 2,18 L16,18 C17.1,18 18,17.1 18,16 L18,2 C18,0.9 17.1,0 16,0 L16,0 Z M14,6 L4,6 L4,4 L14,4 L14,6 L14,6 Z M14,10 L4,10 L4,8 L14,8 L14,10 L14,10 Z M11,14 L4,14 L4,12 L11,12 L11,14 L11,14 Z" id="Shape"></path>
                    </g>
                </g>
            </g>
        </g>
    </g>
</svg>