<?xml version="1.0" encoding="UTF-8"?>
<svg width="16px" height="15px" viewBox="0 0 16 15" version="1.1" xmlns="http://www.w3.org/2000/svg" xmlns:xlink="http://www.w3.org/1999/xlink">
    <!-- Generator: Sketch 44.1 (41455) - http://www.bohemiancoding.com/sketch -->
    <title>danger</title>
    <desc>Created with Sketch.</desc>
    <defs></defs>
    <g id="Setting-3New" stroke="none" stroke-width="1" fill="none" fill-rule="evenodd">
        <g id="Number5-Indicators" transform="translate(-962.000000, -522.000000)" fill-rule="nonzero" fill="#282828">
            <g id="Pop-up" transform="translate(719.000000, 458.000000)">
                <g id="Group-6" transform="translate(110.000000, 53.000000)">
                    <g id="Group-10" transform="translate(123.000000, 0.000000)">
                        <g id="danger" transform="translate(10.000000, 11.000000)">
                            <path d="M15.8150574,12.3225619 C16.0334018,12.7006163 16.0334018,13.1665498 15.8151541,13.5446526 C15.596858,13.9228036 15.1933776,14.1556979 14.7567855,14.1556979 L1.27038066,14.1556979 C0.833740181,14.1556979 0.430308157,13.9227553 0.212012085,13.5446526 C-0.00628398792,13.1665498 -0.00628398792,12.7006163 0.212108761,12.3225619 L6.95531118,0.645558912 C7.17360725,0.267456193 7.57703927,0.0346586103 8.01358308,0.0346586103 C8.45017523,0.0346586103 8.85355891,0.267504532 9.07185498,0.645558912 L15.8150574,12.3225619 Z M7.16766163,5.46373414 L7.5181148,9.47581873 C7.53856193,9.712 7.72601813,9.90665861 7.97032024,9.92802417 C8.24396375,9.95195166 8.48517221,9.74946224 8.50905136,9.47581873 L8.85950453,5.46373414 C8.86327492,5.41684592 8.86375831,5.36430211 8.85950453,5.31596375 C8.81870695,4.84872508 8.40691239,4.50310574 7.93972205,4.54385498 C7.47253172,4.58470091 7.12686405,4.99659215 7.16766163,5.46373414 Z M8.01358308,11.5785378 C8.40068297,11.5785378 8.71448943,11.2647313 8.71448943,10.8776314 C8.71448943,10.4905315 8.40068297,10.1767251 8.01358308,10.1767251 C7.6264832,10.1767251 7.31267674,10.4905315 7.31267674,10.8776314 C7.31267674,11.2647313 7.6264832,11.5785378 8.01358308,11.5785378 Z" id="Combined-Shape"></path>
                        </g>
                    </g>
                </g>
            </g>
        </g>
    </g>
</svg>