<?xml version="1.0" encoding="UTF-8"?>
<svg width="15px" height="16px" viewBox="0 0 15 16" version="1.1" xmlns="http://www.w3.org/2000/svg" xmlns:xlink="http://www.w3.org/1999/xlink">
    <!-- Generator: Sketch 44.1 (41455) - http://www.bohemiancoding.com/sketch -->
    <title>like</title>
    <desc>Created with Sketch.</desc>
    <defs></defs>
    <g id="Setting-3New" stroke="none" stroke-width="1" fill="none" fill-rule="evenodd">
        <g id="Number5-Indicators" transform="translate(-839.000000, -562.000000)" fill-rule="nonzero" fill="#282828">
            <g id="Pop-up" transform="translate(719.000000, 458.000000)">
                <g id="Group-6" transform="translate(110.000000, 53.000000)">
                    <g id="Group-17-Copy" transform="translate(0.000000, 41.000000)">
                        <g id="like" transform="translate(10.000000, 10.000000)">
                            <path d="M14.2799664,8.92544538 C14.5935126,8.45186555 14.750084,7.93055462 14.750084,7.36114286 C14.750084,6.70208403 14.5072269,6.12964706 14.0211092,5.64292437 C13.5347563,5.15670588 12.9588908,4.91364706 12.2935798,4.91364706 L10.6044706,4.91364706 C10.9114958,4.28030252 11.0652773,3.66601681 11.0652773,3.07109244 C11.0652773,2.32248739 10.9530084,1.72752941 10.7292773,1.28605042 C10.5053109,0.844436975 10.178958,0.519831933 9.7502521,0.311798319 C9.32144538,0.103865546 8.83855462,0 8.30114286,0 C7.97468908,0 7.68689076,0.118352941 7.43737815,0.355159664 C7.16231933,0.623831933 6.96396639,0.969411765 6.84245378,1.39169748 C6.72087395,1.81384874 6.6232605,2.21858824 6.5497479,2.60568067 C6.47623529,2.9927395 6.36255462,3.2662521 6.20907563,3.42618487 C5.8954958,3.76527731 5.5532437,4.17485714 5.18215126,4.65465546 C4.53596639,5.49270588 4.09764706,5.98860504 3.86742857,6.14221849 L1.23791597,6.14221849 C0.898823529,6.14221849 0.609277311,6.26235294 0.369344538,6.50208403 C0.129512605,6.74205042 0.00951260504,7.03156303 0.00951260504,7.37068908 L0.00951260504,13.5126387 C0.00951260504,13.8517647 0.129378151,14.1411765 0.369344538,14.3811429 C0.609411765,14.6211092 0.898823529,14.7411765 1.23791597,14.7411765 L4.00164706,14.7411765 C4.14242017,14.7411765 4.58379832,14.8691092 5.32598319,15.125042 C6.11297479,15.4002017 6.80554622,15.6096807 7.40369748,15.7536807 C8.00191597,15.8976807 8.60813445,15.9697143 9.22238655,15.9697143 L10.1146555,15.9697143 L10.4603361,15.9697143 C11.3623866,15.9697143 12.0885042,15.7120336 12.6387899,15.1969412 C13.1888739,14.6818487 13.4609076,13.9796975 13.4545882,13.0903866 C13.8384538,12.5977143 14.0303529,12.0283025 14.0303529,11.3821849 C14.0303529,11.2415126 14.0209076,11.1039664 14.0016134,10.969479 C14.2446387,10.5409748 14.3664538,10.0803025 14.3664538,9.58763025 C14.3663529,9.35727731 14.3376134,9.13643697 14.2799664,8.92544538 Z M2.284,13.3304202 C2.16245378,13.4518992 2.01852101,13.5128739 1.85216807,13.5128739 C1.68578151,13.5128739 1.54181513,13.4519328 1.42023529,13.3304202 C1.29872269,13.2089748 1.23791597,13.0649748 1.23791597,12.8984874 C1.23791597,12.7321681 1.29858824,12.5882689 1.42023529,12.4666555 C1.54194958,12.3450756 1.68578151,12.2843025 1.85216807,12.2843025 C2.01852101,12.2843025 2.16245378,12.3450756 2.284,12.4666555 C2.40557983,12.5882353 2.46638655,12.7321345 2.46638655,12.8984874 C2.46638655,13.0649748 2.40557983,13.2089748 2.284,13.3304202 Z M13.3157983,8.14853782 C13.1782185,8.44278992 13.0070252,8.59314286 12.8023193,8.59946218 C12.8982521,8.70826891 12.9782857,8.86036975 13.0422857,9.05532773 C13.1062185,9.25052101 13.1379832,9.428 13.1379832,9.58803361 C13.1379832,10.0292773 12.9686723,10.4100504 12.6295462,10.7298487 C12.7448403,10.9344874 12.8023529,11.1553277 12.8023529,11.3919328 C12.8023529,11.6286723 12.7464538,11.8637983 12.6344202,12.0972773 C12.5225882,12.3305546 12.370521,12.4985546 12.1786555,12.6008739 C12.2106218,12.7927731 12.2264874,12.9719664 12.2264874,13.1382857 C12.2264874,14.2066891 11.6122353,14.7409076 10.3836975,14.7409076 L9.22282353,14.7409076 C8.3845042,14.7409076 7.29062185,14.5075294 5.94053782,14.0403697 C5.9085042,14.0275966 5.81586555,13.9938824 5.66221849,13.9395966 C5.50857143,13.8853109 5.39505882,13.8452773 5.32144538,13.8197647 C5.24783193,13.7939832 5.13596639,13.7572101 4.98551261,13.7093445 C4.83509244,13.6612437 4.71368067,13.6260168 4.62084034,13.6037311 C4.52813445,13.5814118 4.42248739,13.560605 4.30423529,13.5413782 C4.18591597,13.5221849 4.08510924,13.5126387 4.00194958,13.5126387 L3.69485714,13.5126387 L3.69485714,7.37092437 L4.00194958,7.37092437 C4.10430252,7.37092437 4.21784874,7.34205042 4.34262185,7.28460504 C4.46736134,7.2269916 4.59539496,7.14063866 4.72652101,7.02544538 C4.85771429,6.9102521 4.98077311,6.79670588 5.096,6.68467227 C5.21119328,6.5727395 5.33912605,6.432 5.47993277,6.26252101 C5.62067227,6.09290756 5.73102521,5.9570084 5.81105882,5.85462185 C5.8909916,5.75226891 5.99173109,5.62104202 6.11331092,5.46110924 C6.23482353,5.30121008 6.30847059,5.20521008 6.33405042,5.17317647 C6.68588235,4.73818487 6.93220168,4.44709244 7.07294118,4.29986555 C7.3352605,4.02484034 7.52557983,3.67455462 7.64393277,3.24907563 C7.76242017,2.82352941 7.85996639,2.42205042 7.93647059,2.04463866 C8.01317647,1.66719328 8.13489076,1.39519328 8.30144538,1.22884034 C8.9154958,1.22884034 9.32507563,1.37912605 9.5297479,1.67986555 C9.73438655,1.98053782 9.83677311,2.44443697 9.83677311,3.07142857 C9.83677311,3.44887395 9.68309244,3.96228571 9.37593277,4.61163025 C9.06890756,5.26104202 8.9154958,5.77129412 8.9154958,6.14235294 L12.293479,6.14235294 C12.6137143,6.14235294 12.8982857,6.26544538 13.1476975,6.51189916 C13.3973109,6.75818487 13.5222521,7.04443697 13.5222521,7.37082353 C13.5221513,7.59472269 13.4533445,7.85388235 13.3157983,8.14853782 Z" id="Shape"></path>
                        </g>
                    </g>
                </g>
            </g>
        </g>
    </g>
</svg>