<?xml version="1.0" encoding="UTF-8"?>
<svg width="16px" height="16px" viewBox="0 0 16 16" version="1.1" xmlns="http://www.w3.org/2000/svg" xmlns:xlink="http://www.w3.org/1999/xlink">
    <!-- Generator: Sketch 44.1 (41455) - http://www.bohemiancoding.com/sketch -->
    <title>Replay-Select</title>
    <desc>Created with Sketch.</desc>
    <defs></defs>
    <g id="Bookmark" stroke="none" stroke-width="1" fill="none" fill-rule="evenodd">
        <g id="Bookmark_Editable-List" transform="translate(-1331.000000, -180.000000)" fill-rule="nonzero" fill="#000000">
            <g id="Bookmark" transform="translate(1070.000000, 120.000000)">
                <g id="Button" transform="translate(20.000000, 60.000000)">
                    <g id="Replay-Select" transform="translate(249.000000, 8.000000) scale(-1, 1) translate(-249.000000, -8.000000) translate(241.000000, 0.000000)">
                        <path d="M13.6,2.4 C12.2,0.9 10.2,0 8,0 C3.6,0 0,3.6 0,8 C0,12.4 3.6,16 8,16 C11.7,16 14.8,13.4 15.7,10 L13.6,10 C12.8,12.3 10.6,14 8,14 C4.7,14 2,11.3 2,8 C2,4.7 4.7,2 8,2 C9.7,2 11.1,2.7 12.2,3.8 L9,7 L16,7 L16,0 L13.6,2.4 L13.6,2.4 Z" id="Shape"></path>
                    </g>
                </g>
            </g>
        </g>
    </g>
</svg>