<?xml version="1.0" encoding="UTF-8"?>
<svg width="12px" height="12px" viewBox="0 0 12 12" version="1.1" xmlns="http://www.w3.org/2000/svg" xmlns:xlink="http://www.w3.org/1999/xlink">
    <!-- Generator: Sketch 48.2 (47327) - http://www.bohemiancoding.com/sketch -->
    <title>layer_infos</title>
    <desc>Created with Sketch.</desc>
    <defs></defs>
    <g id="icons" stroke="none" stroke-width="1" fill="none" fill-rule="evenodd" transform="translate(-1158.000000, -960.000000)">
        <g id="layer_infos" transform="translate(1158.000000, 960.000000)" fill="#999999" fill-rule="nonzero">
            <path d="M10.7705719,7.10402509 C11.1803813,6.88262288 11.6721525,7.03022435 11.9180381,7.39922804 C12.0819619,7.76823173 12,8.21103616 11.5901906,8.43243837 L6.42659269,11.1630657 C6.26266895,11.2368664 6.18070708,11.2368664 6.01678333,11.2368664 C5.85285959,11.2368664 5.77089771,11.2368664 5.60697397,11.1630657 L0.443376023,8.43243837 C0.0335666622,8.21103616 -0.130357082,7.76823173 0.115528534,7.39922804 C0.361414151,7.03022435 0.853185384,6.88262288 1.26299474,7.10402509 L6.01678333,9.61325018 L10.7705719,7.10402509 Z M0.443376023,4.94833948 C0.197490407,4.87453875 0.0335666622,4.57933579 0.115528534,4.28413284 C0.115528534,3.98892989 0.279452279,3.76752768 0.525337895,3.6199262 L5.68893584,1.11070111 C5.85285959,0.963099631 6.18070708,0.963099631 6.42659269,1.11070111 L11.5901906,3.6199262 C11.8360763,3.76752768 12,3.98892989 12,4.28413284 C12,4.57933579 11.8360763,4.80073801 11.5901906,4.94833948 L6.42659269,7.67896679 C6.26266895,7.75276753 6.18070708,7.75276753 6.01678333,7.75276753 C5.85285959,7.75276753 5.77089771,7.75276753 5.60697397,7.67896679 L0.443376023,4.94833948 Z" id="Shape"></path>
        </g>
    </g>
</svg>