<?xml version="1.0" encoding="UTF-8"?>
<svg width="120px" height="100px" viewBox="0 0 120 100" version="1.1" xmlns="http://www.w3.org/2000/svg" xmlns:xlink="http://www.w3.org/1999/xlink">
    <!-- Generator: Sketch 46.2 (44496) - http://www.bohemiancoding.com/sketch -->
    <title>HorizontalGauge</title>
    <desc>Created with Sketch.</desc>
    <defs></defs>
    <g id="Page-1" stroke="none" stroke-width="1" fill="none" fill-rule="evenodd">
        <g id="ChooseATemplate-UI" transform="translate(-735.000000, -319.000000)">
            <g id="HorizontalGauge" transform="translate(735.000000, 319.000000)">
                <rect id="Rectangle-Copy-3" fill="#FFFFFF" x="0" y="0" width="120" height="100"></rect>
                <g id="Group-17" transform="translate(20.000000, 18.000000)">
                    <g id="Group-16" transform="translate(0.000000, 24.000000)">
                        <rect id="Rectangle-11" fill="#DEDEDE" x="0" y="0" width="80" height="14"></rect>
                        <rect id="Rectangle-11" fill="#24B5CC" x="0" y="0" width="57" height="14"></rect>
                    </g>
                    <path d="M5,55 L75,55 L75,57 L5,57 L5,55 Z M20,62 L60,62 L60,64 L20,64 L20,62 Z" id="Combined-Shape" fill="#DEDEDE"></path>
                    <path d="M22,0 L28,0 L28,6 L22,6 L22,0 Z M32,0 L38,0 L38,6 L32,6 L32,0 Z M42,0 L48,0 L48,6 L42,6 L42,0 Z M52,0 L58,0 L58,6 L52,6 L52,0 Z" id="Combined-Shape" fill="#DEDEDE"></path>
                </g>
            </g>
        </g>
    </g>
</svg>