<?xml version="1.0" encoding="UTF-8"?>
<svg width="120px" height="100px" viewBox="0 0 120 100" version="1.1" xmlns="http://www.w3.org/2000/svg" xmlns:xlink="http://www.w3.org/1999/xlink">
    <!-- Generator: Sketch 46.2 (44496) - http://www.bohemiancoding.com/sketch -->
    <title>Line</title>
    <desc>Created with Sketch.</desc>
    <defs></defs>
    <g id="Page-1" stroke="none" stroke-width="1" fill="none" fill-rule="evenodd">
        <g id="ChooseATemplate-UI" transform="translate(-285.000000, -629.000000)">
            <g id="Line" transform="translate(285.000000, 629.000000)">
                <rect id="Rectangle-Copy-12" fill="#FFFFFF" x="0" y="0" width="120" height="100"></rect>
                <g id="Group-26" transform="translate(25.000000, 13.000000)">
                    <path d="M0,65 L70,65 L70,67 L0,67 L0,65 Z M15,72 L55,72 L55,74 L15,74 L15,72 Z" id="Combined-Shape" fill="#DEDEDE"></path>
                    <path d="M17,0 L23,0 L23,6 L17,6 L17,0 Z M27,0 L33,0 L33,6 L27,6 L27,0 Z M37,0 L43,0 L43,6 L37,6 L37,0 Z M47,0 L53,0 L53,6 L47,6 L47,0 Z" id="Combined-Shape" fill="#DEDEDE"></path>
                    <g id="Group-13" transform="translate(2.000000, 17.000000)">
                        <rect id="Rectangle-14" fill="#B3B3B3" x="0" y="35" width="66" height="1"></rect>
                        <rect id="Rectangle-15" fill="#B3B3B3" x="0" y="0" width="1" height="36"></rect>
                        <g id="Group-11" transform="translate(2.000000, 8.000000)">
                            <polyline id="Path-7" stroke="#F6A623" stroke-linecap="round" stroke-linejoin="round" points="2 9 19 22 37 2 61 23"></polyline>
                            <circle id="Oval-2" fill="#F6A623" cx="2" cy="9" r="2"></circle>
                            <circle id="Oval-2" fill="#F6A623" cx="19" cy="22" r="2"></circle>
                            <circle id="Oval-2" fill="#F6A623" cx="37" cy="2" r="2"></circle>
                            <circle id="Oval-2" fill="#F6A623" cx="61" cy="23" r="2"></circle>
                        </g>
                        <g id="Group-12" transform="translate(2.000000, 2.000000)">
                            <polyline id="Path-6" stroke="#24B5CC" stroke-linecap="round" stroke-linejoin="round" points="2 24 10 30 26 12 40 24 61 2"></polyline>
                            <circle id="Oval-2" fill="#24B5CC" cx="26" cy="12" r="2"></circle>
                            <circle id="Oval-2" fill="#24B5CC" cx="40" cy="24" r="2"></circle>
                            <circle id="Oval-2" fill="#24B5CC" cx="10" cy="30" r="2"></circle>
                            <circle id="Oval-2" fill="#24B5CC" cx="2" cy="24" r="2"></circle>
                            <circle id="Oval-2" fill="#24B5CC" cx="61" cy="2" r="2"></circle>
                        </g>
                    </g>
                </g>
            </g>
        </g>
    </g>
</svg>