<?xml version="1.0" encoding="UTF-8"?>
<svg width="120px" height="100px" viewBox="0 0 120 100" version="1.1" xmlns="http://www.w3.org/2000/svg" xmlns:xlink="http://www.w3.org/1999/xlink">
    <!-- Generator: Sketch 46.2 (44496) - http://www.bohemiancoding.com/sketch -->
    <title>number</title>
    <desc>Created with Sketch.</desc>
    <defs></defs>
    <g id="Page-1" stroke="none" stroke-width="1" fill="none" fill-rule="evenodd">
        <g id="ChooseATemplate-UI" transform="translate(-285.000000, -319.000000)">
            <g id="number" transform="translate(285.000000, 319.000000)">
                <rect id="Rectangle" fill="#FFFFFF" x="0" y="0" width="120" height="100"></rect>
                <g id="Group-2" transform="translate(25.000000, 15.000000)">
                    <path d="M20.4115102,51.69437 L20.4115102,43.3297587 L18.3552575,44.9705094 L17,43.0563003 L20.6295976,40.30563 L23.0285591,40.30563 L23.0285591,51.69437 L20.4115102,51.69437 Z M31.0199048,51.69437 L31.0199048,49.4423592 L35.3193423,45.4209115 C35.5893566,45.1528137 35.8074418,44.879358 35.9736045,44.6005362 C36.1397672,44.3217144 36.2228473,44.0107256 36.2228473,43.6675603 C36.2228473,43.2600516 36.0982271,42.9302962 35.8489831,42.6782842 C35.5997391,42.4262722 35.2674188,42.3002681 34.8520121,42.3002681 C34.4158351,42.3002681 34.0601485,42.4584435 33.7849416,42.7747989 C33.5097347,43.0911544 33.3461707,43.5066998 33.2942449,44.0214477 L30.7862397,43.6675603 C30.8485507,43.088469 31.0017296,42.5737288 31.245781,42.1233244 C31.4898325,41.67292 31.7987865,41.2895458 32.1726525,40.9731903 C32.5465185,40.6568349 32.9749002,40.4155504 33.4578105,40.2493298 C33.9407207,40.0831091 34.4521825,40 34.9922112,40 C35.5010843,40 35.9943723,40.0697044 36.47209,40.2091153 C36.9498077,40.3485262 37.3755931,40.5630012 37.7494591,40.8525469 C38.1233251,41.1420926 38.4218942,41.5067002 38.6451752,41.9463807 C38.8684563,42.3860612 38.9800952,42.9008013 38.9800952,43.4906166 C38.9800952,43.8981254 38.9281701,44.2654139 38.8243185,44.5924933 C38.7204668,44.9195727 38.5776729,45.2225187 38.3959325,45.5013405 C38.2141921,45.7801623 38.0064919,46.0402133 37.7728256,46.2815013 C37.5391594,46.5227894 37.2977079,46.7613929 37.0484639,46.997319 L34.4937257,49.3458445 L38.9956729,49.3458445 L38.9956729,51.69437 L31.0199048,51.69437 Z M53,48.3806971 C53,49.0026841 52.8779761,49.5415527 52.6339247,49.997319 C52.3898733,50.4530854 52.0705342,50.8284168 51.6758979,51.1233244 C51.2812615,51.418232 50.8373023,51.638069 50.3440069,51.7828418 C49.8507115,51.9276147 49.3496347,52 48.8407616,52 C48.3422736,52 47.8567743,51.9410194 47.3842492,51.8230563 C46.9117242,51.7050932 46.4807462,51.5254704 46.0913025,51.2841823 C45.7018587,51.0428942 45.3617496,50.7319054 45.070965,50.3512064 C44.7801803,49.9705075 44.5620951,49.512067 44.4167027,48.9758713 L46.8468196,48.3163539 C46.9506712,48.6916909 47.1635639,49.0214463 47.4855041,49.30563 C47.8074443,49.5898138 48.2176522,49.7319035 48.7161402,49.7319035 C48.9030732,49.7319035 49.0925996,49.7050941 49.2847252,49.6514745 C49.4768508,49.597855 49.6482035,49.5147459 49.7987884,49.4021448 C49.9493733,49.2895437 50.0739934,49.1420921 50.1726525,48.9597855 C50.2713116,48.777479 50.3206404,48.5522802 50.3206404,48.2841823 C50.3206404,47.9946366 50.2557341,47.7533522 50.1259195,47.5603217 C49.9961049,47.3672913 49.8247523,47.2144778 49.6118563,47.1018767 C49.3989604,46.9892756 49.1575089,46.9088474 48.8874946,46.8605898 C48.6174803,46.8123322 48.34747,46.7882038 48.0774556,46.7882038 L47.3764604,46.7882038 L47.3764604,44.8096515 L48.1397663,44.8096515 C48.3890103,44.8096515 48.6278656,44.7908849 48.8563392,44.7533512 C49.0848129,44.7158175 49.2899169,44.6461131 49.4716573,44.5442359 C49.6533977,44.4423587 49.7987879,44.3056309 49.9078321,44.1340483 C50.0168764,43.9624656 50.0713977,43.7372668 50.0713977,43.458445 C50.0713977,43.0509363 49.9312,42.7399475 49.6508005,42.5254692 C49.370401,42.3109909 49.0484657,42.2037534 48.6849849,42.2037534 C48.3111189,42.2037534 47.9865873,42.3190337 47.7113804,42.5495979 C47.4361734,42.780162 47.257032,43.0884699 47.1739507,43.4745308 L44.7438338,42.8954424 C44.878841,42.4128662 45.0813487,41.9919589 45.351363,41.6327078 C45.6213774,41.2734566 45.9407165,40.9731916 46.3093899,40.7319035 C46.6780633,40.4906154 47.0804825,40.3083116 47.5166595,40.1849866 C47.9528365,40.0616616 48.3993919,40 48.8563392,40 C49.3444421,40 49.8195563,40.0643425 50.2816962,40.1930295 C50.7438361,40.3217165 51.1566403,40.5201059 51.5201212,40.7882038 C51.883602,41.0563016 52.1769785,41.3914189 52.4002596,41.7935657 C52.6235407,42.1957125 52.7351796,42.6702386 52.7351796,43.2171582 C52.7351796,43.8498691 52.5612306,44.3833758 52.2133276,44.8176944 C51.8654245,45.2520129 51.4214653,45.5442352 50.8814366,45.69437 L50.8814366,45.7426273 C51.1929916,45.8176947 51.4785794,45.938337 51.7382086,46.1045576 C51.9978377,46.2707783 52.2211155,46.4691677 52.4080485,46.6997319 C52.5949815,46.9302961 52.7403716,47.1876661 52.8442233,47.4718499 C52.9480749,47.7560336 53,48.0589796 53,48.3806971 Z" id="1-2-3" fill="#24B5CC"></path>
                    <g id="public" transform="translate(28.000000, 16.000000)" fill="#B3B3B3">
                        <path d="M7,0 C3.15,0 0,3.15 0,7 C0,10.85 3.15,14 7,14 C10.85,14 14,10.85 14,7 C14,3.15 10.85,0 7,0 L7,0 Z M6.3,12.53 C3.57,12.18 1.4,9.8 1.4,7 C1.4,6.58 1.47,6.16 1.54,5.74 L4.9,9.1 L4.9,9.8 C4.9,10.57 5.53,11.2 6.3,11.2 L6.3,12.53 L6.3,12.53 Z M11.13,10.78 C10.92,10.22 10.43,9.8 9.8,9.8 L9.1,9.8 L9.1,7.7 C9.1,7.28 8.82,7 8.4,7 L4.2,7 L4.2,5.6 L5.6,5.6 C6.02,5.6 6.3,5.32 6.3,4.9 L6.3,3.5 L7.7,3.5 C8.47,3.5 9.1,2.87 9.1,2.1 L9.1,1.82 C11.13,2.66 12.6,4.69 12.6,7 C12.6,8.47 12.04,9.8 11.13,10.78 L11.13,10.78 Z" id="Shape"></path>
                    </g>
                    <path d="M17,0 L23,0 L23,6 L17,6 L17,0 Z M27,0 L33,0 L33,6 L27,6 L27,0 Z M37,0 L43,0 L43,6 L37,6 L37,0 Z M47,0 L53,0 L53,6 L47,6 L47,0 Z" id="Combined-Shape" fill="#DEDEDE"></path>
                    <polygon id="Shape" fill="#F6A623" points="63 49 66 49 66 46.2307692 68 46.2307692 64.5 43 61 46.2307692 63 46.2307692"></polygon>
                    <path d="M0,62 L70,62 L70,64 L0,64 L0,62 Z M15,69 L55,69 L55,71 L15,71 L15,69 Z" id="Combined-Shape" fill="#DEDEDE"></path>
                </g>
            </g>
        </g>
    </g>
</svg>