<?xml version="1.0" encoding="UTF-8"?>
<svg width="120px" height="100px" viewBox="0 0 120 100" version="1.1" xmlns="http://www.w3.org/2000/svg" xmlns:xlink="http://www.w3.org/1999/xlink">
    <!-- Generator: Sketch 46.2 (44496) - http://www.bohemiancoding.com/sketch -->
    <title>PercentageStackedBar</title>
    <desc>Created with Sketch.</desc>
    <defs></defs>
    <g id="Page-1" stroke="none" stroke-width="1" fill="none" fill-rule="evenodd">
        <g id="ChooseATemplate-UI" transform="translate(-585.000000, -474.000000)">
            <g id="PercentageStackedBar" transform="translate(585.000000, 474.000000)">
                <rect id="Rectangle-Copy-7" fill="#FFFFFF" x="0" y="0" width="120" height="100"></rect>
                <g id="Group-22" transform="translate(25.000000, 13.000000)">
                    <g id="Group-9" transform="translate(5.000000, 20.000000)">
                        <rect id="Rectangle-14" fill="#B3B3B3" x="0" y="30" width="60" height="1"></rect>
                        <rect id="Rectangle-16" fill="#24B5CC" x="1" y="0" width="17" height="4"></rect>
                        <rect id="Rectangle-16-Copy-6" fill="#24B5CC" x="1" y="8" width="51" height="4"></rect>
                        <rect id="Rectangle-16-Copy-2" fill="#24B5CC" x="1" y="16" width="36" height="4"></rect>
                        <rect id="Rectangle-16-Copy-4" fill="#24B5CC" x="1" y="24" width="26" height="4"></rect>
                        <rect id="Rectangle-16-Copy" fill="#F6A623" x="18" y="0" width="42" height="4"></rect>
                        <rect id="Rectangle-16-Copy-7" fill="#F6A623" x="52" y="8" width="8" height="4"></rect>
                        <rect id="Rectangle-16-Copy-3" fill="#F6A623" x="37" y="16" width="23" height="4"></rect>
                        <rect id="Rectangle-16-Copy-5" fill="#F6A623" x="27" y="24" width="33" height="4"></rect>
                        <rect id="Rectangle-15" fill="#B3B3B3" x="0" y="0" width="1" height="31"></rect>
                    </g>
                    <path d="M0,65 L70,65 L70,67 L0,67 L0,65 Z M15,72 L55,72 L55,74 L15,74 L15,72 Z" id="Combined-Shape" fill="#DEDEDE"></path>
                    <path d="M17,0 L23,0 L23,6 L17,6 L17,0 Z M27,0 L33,0 L33,6 L27,6 L27,0 Z M37,0 L43,0 L43,6 L37,6 L37,0 Z M47,0 L53,0 L53,6 L47,6 L47,0 Z" id="Combined-Shape" fill="#DEDEDE"></path>
                </g>
            </g>
        </g>
    </g>
</svg>