<?xml version="1.0" encoding="UTF-8"?>
<svg width="120px" height="100px" viewBox="0 0 120 100" version="1.1" xmlns="http://www.w3.org/2000/svg" xmlns:xlink="http://www.w3.org/1999/xlink">
    <!-- Generator: Sketch 46.2 (44496) - http://www.bohemiancoding.com/sketch -->
    <title>PercentageStackedColumn</title>
    <desc>Created with Sketch.</desc>
    <defs></defs>
    <g id="Page-1" stroke="none" stroke-width="1" fill="none" fill-rule="evenodd">
        <g id="ChooseATemplate-UI" transform="translate(-1035.000000, -474.000000)">
            <g id="PercentageStackedColumn" transform="translate(1035.000000, 474.000000)">
                <rect id="Rectangle-Copy-11" fill="#FFFFFF" x="0" y="0" width="120" height="100"></rect>
                <g id="Group-24" transform="translate(25.000000, 13.000000)">
                    <g id="Group-10" transform="translate(11.000000, 15.000000)">
                        <rect id="Rectangle-14" fill="#B3B3B3" x="0" y="39" width="47" height="1"></rect>
                        <rect id="Rectangle-17" fill="#24B5CC" x="3" y="24" width="4" height="15"></rect>
                        <rect id="Rectangle-17-Copy-2" fill="#24B5CC" x="11" y="19" width="4" height="20"></rect>
                        <rect id="Rectangle-17-Copy-4" fill="#24B5CC" x="19" y="29" width="4" height="10"></rect>
                        <rect id="Rectangle-17-Copy-6" fill="#24B5CC" x="27" y="10" width="4" height="29"></rect>
                        <rect id="Rectangle-17-Copy-8" fill="#24B5CC" x="35" y="15" width="4" height="24"></rect>
                        <rect id="Rectangle-17-Copy-10" fill="#24B5CC" x="43" y="20" width="4" height="19"></rect>
                        <rect id="Rectangle-17-Copy" fill="#F6A623" x="3" y="0" width="4" height="24"></rect>
                        <rect id="Rectangle-17-Copy-3" fill="#F6A623" x="11" y="0" width="4" height="19"></rect>
                        <rect id="Rectangle-17-Copy-5" fill="#F6A623" x="19" y="0" width="4" height="29"></rect>
                        <rect id="Rectangle-17-Copy-7" fill="#F6A623" x="27" y="0" width="4" height="10"></rect>
                        <rect id="Rectangle-17-Copy-9" fill="#F6A623" x="35" y="0" width="4" height="15"></rect>
                        <rect id="Rectangle-17-Copy-11" fill="#F6A623" x="43" y="0" width="4" height="20"></rect>
                        <rect id="Rectangle-15" fill="#B3B3B3" x="0" y="0" width="1" height="40"></rect>
                    </g>
                    <path d="M0,65 L70,65 L70,67 L0,67 L0,65 Z M15,72 L55,72 L55,74 L15,74 L15,72 Z" id="Combined-Shape" fill="#DEDEDE"></path>
                    <path d="M17,0 L23,0 L23,6 L17,6 L17,0 Z M27,0 L33,0 L33,6 L27,6 L27,0 Z M37,0 L43,0 L43,6 L37,6 L37,0 Z M47,0 L53,0 L53,6 L47,6 L47,0 Z" id="Combined-Shape" fill="#DEDEDE"></path>
                </g>
            </g>
        </g>
    </g>
</svg>