<?xml version="1.0" encoding="UTF-8"?>
<svg width="120px" height="100px" viewBox="0 0 120 100" version="1.1" xmlns="http://www.w3.org/2000/svg" xmlns:xlink="http://www.w3.org/1999/xlink">
    <!-- Generator: Sketch 46.2 (44496) - http://www.bohemiancoding.com/sketch -->
    <title>Pie</title>
    <desc>Created with Sketch.</desc>
    <defs></defs>
    <g id="Page-1" stroke="none" stroke-width="1" fill="none" fill-rule="evenodd">
        <g id="ChooseATemplate-UI" transform="translate(-885.000000, -319.000000)">
            <g id="Pie" transform="translate(885.000000, 319.000000)">
                <rect id="Rectangle-Copy-4" fill="#FFFFFF" x="0" y="0" width="120" height="100"></rect>
                <g id="Group-18" transform="translate(25.000000, 13.000000)">
                    <g id="Group-8" transform="translate(13.000000, 15.000000)">
                        <g id="Pies">
                            <ellipse id="5" fill="#24B5CC" cx="19.8328795" cy="19.8419067" rx="19.8328795" ry="19.8419067"></ellipse>
                            <path d="M17.2243624,39.5137256 C7.50375229,38.2360462 0,29.915673 0,19.8419067 C0,17.7655569 0.318783483,15.7636968 0.910056243,13.8826417 L20.3879813,20.0173607 L17.2243624,39.5137256 Z" id="4" fill="#E5E5E5"></path>
                            <path d="M0.898713804,13.9188481 C2.96213383,7.30986468 8.38737299,2.18602291 15.1715528,0.551112873 L20.4419343,20.0098924 L0.898713804,13.9188481 Z" id="3" fill="#F6A623"></path>
                            <path d="M15.1791935,0.549273172 C16.6718045,0.190201276 18.2301401,0 19.8328795,0 C27.7992275,0 34.6685628,4.6990082 37.8227277,11.4776754 L20.4539348,20.0421347 L15.1791935,0.549273172 Z" id="2" fill="#D4D4D4"></path>
                            <path d="M37.871451,11.5831983 C39.0235301,14.0977397 39.6657589,16.8947888 39.6657589,19.8419067 C39.6657589,19.8736239 39.6656845,19.9053237 39.6655359,19.937006 L20.4165277,19.946721 L37.871451,11.5831983 Z" id="1" fill="#B3B3B3"></path>
                        </g>
                        <path d="M20.0232692,19.6455505 L14.8894031,0.4769807 L15.4838372,0.317775053 L20.6655564,19.6650169 L37.8187042,11.0236118 L38.0955731,11.5731952 L21.5966002,19.8850403 L39.9277398,19.8850403 L39.9277398,20.5004249 L20.6829985,20.5004249 L17.5671081,39.885515 L16.9595223,39.7878539 L20.0754393,20.4025981 L20.0183239,20.2892243 L0.626081855,14.1765588 L0.811085192,13.5896414 L20.0232692,19.6455505 Z" id="Combined-Shape" fill="#FFFFFF" fill-rule="nonzero"></path>
                    </g>
                    <path d="M0,65 L70,65 L70,67 L0,67 L0,65 Z M15,72 L55,72 L55,74 L15,74 L15,72 Z" id="Combined-Shape" fill="#DEDEDE"></path>
                    <path d="M17,0 L23,0 L23,6 L17,6 L17,0 Z M27,0 L33,0 L33,6 L27,6 L27,0 Z M37,0 L43,0 L43,6 L37,6 L37,0 Z M47,0 L53,0 L53,6 L47,6 L47,0 Z" id="Combined-Shape" fill="#DEDEDE"></path>
                </g>
            </g>
        </g>
    </g>
</svg>