<?xml version="1.0" encoding="UTF-8"?>
<svg width="19px" height="16px" viewBox="0 0 19 16" version="1.1" xmlns="http://www.w3.org/2000/svg" xmlns:xlink="http://www.w3.org/1999/xlink">
    <!-- Generator: Sketch 46.2 (44496) - http://www.bohemiancoding.com/sketch -->
    <title>custom filter</title>
    <desc>Created with Sketch.</desc>
    <defs></defs>
    <g id="Filter-Setting" stroke="none" stroke-width="1" fill="none" fill-rule="evenodd">
        <g id="Filter-Runtime" transform="translate(-321.000000, -730.000000)" fill="#FFFFFF">
            <g id="custom-filter" transform="translate(321.000000, 730.000000)">
                <polygon id="Path-150" points="0 0 14.75 0 8.48484802 8 8.48484848 14.8108485 6.22222222 16 6.22222176 8"></polygon>
                <path d="M17.9938501,10.4221106 C17.9938501,10.3015075 18.0346562,10.1809045 18.0346562,10.0201005 C18.0346562,9.85929648 18.0346562,9.73869347 17.9938501,9.61809045 L18.8507781,8.93467337 C18.9323903,8.85427136 18.9323903,8.77386935 18.8915842,8.69346734 L18.0754623,7.28643216 C18.0346562,7.24623116 17.953044,7.20603015 17.8306258,7.24623116 L16.8104735,7.64824121 C16.606443,7.48743719 16.3616065,7.36683417 16.1167699,7.24623116 L15.9535455,6.20100503 C15.9943516,6.08040201 15.8719334,6 15.7903212,6 L14.1580775,6 C14.0764653,6 13.954047,6.08040201 13.954047,6.16080402 L13.7908227,7.24623116 C13.5459861,7.32663317 13.3419557,7.48743719 13.0971191,7.64824121 L12.1177729,7.24623116 C11.9953546,7.20603015 11.9137424,7.24623116 11.8321303,7.32663317 L11.0160084,8.73366834 C10.9752023,8.77386935 11.0160084,8.89447236 11.0976206,8.97487437 L11.9545485,9.61809045 C11.9545485,9.73869347 11.9137424,9.85929648 11.9137424,10.0201005 C11.9137424,10.1809045 11.9137424,10.3015075 11.9545485,10.4221106 L11.0976206,11.1055276 C11.0160084,11.1859296 11.0160084,11.2663317 11.0568145,11.3467337 L11.8729364,12.7537688 C11.9137424,12.7939698 11.9953546,12.8341709 12.1177729,12.7939698 L13.1379252,12.3919598 C13.3419557,12.5527638 13.5867922,12.6733668 13.8316288,12.7939698 L13.9948531,13.839196 C13.9948531,13.919598 14.0764653,14 14.1988836,14 L15.8311273,14 C15.9127395,14 16.0351577,13.919598 16.0351577,13.839196 L16.1983821,12.7939698 C16.4432186,12.6733668 16.6880552,12.5527638 16.8920857,12.3919598 L17.912238,12.7939698 C17.9938501,12.8341709 18.1162684,12.7939698 18.1570745,12.7135678 L18.9731963,11.3065327 C19.0140024,11.2261307 19.0140024,11.1055276 18.9323903,11.0653266 L17.9938501,10.4221106 L17.9938501,10.4221106 Z M14.9741993,11.4271357 C14.1988836,11.4271357 13.5459861,10.7839196 13.5459861,10.0201005 C13.5459861,9.25628141 14.1988836,8.61306533 14.9741993,8.61306533 C15.7495151,8.61306533 16.4024126,9.25628141 16.4024126,10.0201005 C16.4024126,10.7839196 15.7495151,11.4271357 14.9741993,11.4271357 L14.9741993,11.4271357 Z" id="Shape"></path>
            </g>
        </g>
    </g>
</svg>