<?xml version="1.0" encoding="UTF-8"?>
<svg width="16px" height="16px" viewBox="0 0 16 16" version="1.1" xmlns="http://www.w3.org/2000/svg" xmlns:xlink="http://www.w3.org/1999/xlink">
    <!-- Generator: Sketch 46.2 (44496) - http://www.bohemiancoding.com/sketch -->
    <title>Search</title>
    <desc>Created with Sketch.</desc>
    <defs></defs>
    <g id="Bookmark" stroke="none" stroke-width="1" fill="none" fill-rule="evenodd">
        <g id="Editable-Card" transform="translate(-1361.000000, -182.000000)" fill="#999999">
            <g id="Bookmark" transform="translate(1070.000000, 120.000000)">
                <g id="Search" transform="translate(95.000000, 55.000000)">
                    <g transform="translate(196.000000, 7.000000)" id="Shape">
                        <path d="M12.0774194,11.3548387 L11.7677419,11.0451613 C12.8,9.90967742 13.4193548,8.36129032 13.4193548,6.70967742 C13.4193548,2.99354839 10.4258065,0 6.70967742,0 C2.99354839,0 0,2.99354839 0,6.70967742 C0,10.4258065 2.99354839,13.4193548 6.70967742,13.4193548 C8.36129032,13.4193548 9.90967742,12.8 11.0451613,11.7677419 L11.3548387,12.0774194 L11.3548387,12.9032258 L14.4516129,16 L16,14.4516129 L12.9032258,11.3548387 L12.0774194,11.3548387 Z M2.06451613,6.70967742 C2.06451613,4.12903226 4.12903226,2.06451613 6.70967742,2.06451613 C9.29032258,2.06451613 11.3548387,4.12903226 11.3548387,6.70967742 C11.3548387,9.29032258 9.29032258,11.3548387 6.70967742,11.3548387 C4.12903226,11.3548387 2.06451613,9.29032258 2.06451613,6.70967742 Z"></path>
                    </g>
                </g>
            </g>
        </g>
    </g>
</svg>