<?xml version="1.0" encoding="UTF-8" standalone="no"?>
<svg width="16px" height="16px" viewBox="0 0 16 16" version="1.1" xmlns="http://www.w3.org/2000/svg" xmlns:xlink="http://www.w3.org/1999/xlink">
    <!-- Generator: Sketch 3.8.3 (29802) - http://www.bohemiancoding.com/sketch -->
    <title>setting_hover</title>
    <desc>Created with Sketch.</desc>
    <defs></defs>
    <g id="specification" stroke="none" stroke-width="1" fill="none" fill-rule="evenodd">
        <g id="spec" transform="translate(-1065.000000, -762.000000)" fill="#FFFFFF">
            <g id="setting_hover" transform="translate(1065.000000, 762.000000)">
                <g id="hover_icon-copy">
                    <path d="M13.9877003,8.84422111 C13.9877003,8.60301508 14.0693125,8.36180905 14.0693125,8.04020101 C14.0693125,7.71859296 14.0693125,7.47738693 13.9877003,7.2361809 L15.7015561,5.86934673 C15.8647805,5.70854271 15.8647805,5.54773869 15.7831683,5.38693467 L14.1509246,2.57286432 C14.0693125,2.49246231 13.9060881,2.4120603 13.6612515,2.49246231 L11.620947,3.29648241 C11.212886,2.97487437 10.7232129,2.73366834 10.2335398,2.49246231 L9.90709109,0.40201005 C9.98870328,0.16080402 9.74386672,0 9.58064236,0 L6.31615501,0 C6.15293064,0 5.90809409,0.16080402 5.90809409,0.32160804 L5.58164535,2.49246231 C5.09197225,2.65326633 4.68391133,2.97487437 4.19423823,3.29648241 L2.23554582,2.49246231 C1.99070927,2.4120603 1.8274849,2.49246231 1.66426053,2.65326633 L0.0320168551,5.46733668 C-0.0495953286,5.54773869 0.0320168551,5.78894472 0.195241223,5.94974874 L1.90909708,7.2361809 C1.90909708,7.47738693 1.8274849,7.71859296 1.8274849,8.04020101 C1.8274849,8.36180905 1.8274849,8.60301508 1.90909708,8.84422111 L0.195241223,10.2110553 C0.0320168551,10.3718593 0.0320168551,10.5326633 0.113629039,10.6934673 L1.74587271,13.5075377 C1.8274849,13.5879397 1.99070927,13.6683417 2.23554582,13.5879397 L4.27585041,12.7839196 C4.68391133,13.1055276 5.17358443,13.3467337 5.66325754,13.5879397 L5.98970627,15.678392 C5.98970627,15.839196 6.15293064,16 6.39776719,16 L9.66225454,16 C9.82547891,16 10.0703155,15.839196 10.0703155,15.678392 L10.3967642,13.5879397 C10.8864373,13.3467337 11.3761104,13.1055276 11.7841713,12.7839196 L13.8244759,13.5879397 C13.9877003,13.6683417 14.2325368,13.5879397 14.314149,13.4271357 L15.9463927,10.6130653 C16.0280049,10.4522613 16.0280049,10.2110553 15.8647805,10.1306533 L13.9877003,8.84422111 L13.9877003,8.84422111 Z M7.94839868,10.8542714 C6.39776719,10.8542714 5.09197225,9.5678392 5.09197225,8.04020101 C5.09197225,6.51256281 6.39776719,5.22613065 7.94839868,5.22613065 C9.49903017,5.22613065 10.8048251,6.51256281 10.8048251,8.04020101 C10.8048251,9.5678392 9.49903017,10.8542714 7.94839868,10.8542714 L7.94839868,10.8542714 Z" id="Shape-Copy-5"></path>
                </g>
            </g>
        </g>
    </g>
</svg>