<?xml version="1.0" encoding="UTF-8" standalone="no"?>
<svg width="16px" height="16px" viewBox="0 0 16 16" version="1.1" xmlns="http://www.w3.org/2000/svg" xmlns:xlink="http://www.w3.org/1999/xlink">
    <!-- Generator: Sketch 3.8.2 (29753) - http://www.bohemiancoding.com/sketch -->
    <title>setting_normal</title>
    <desc>Created with Sketch.</desc>
    <defs></defs>
    <g id="Filter" stroke="none" stroke-width="1" fill="none" fill-rule="evenodd" opacity="0.5">
        <g id="filter" transform="translate(-1367.000000, -356.000000)" fill="#000000">
            <g id="setting_normal" transform="translate(1367.000000, 356.000000)">
                <path d="M13.7113844,8.8 C13.7113844,8.56 13.7913844,8.32 13.7913844,8 C13.7913844,7.68 13.7913844,7.44 13.7113844,7.2 L15.3913844,5.84 C15.5513844,5.68 15.5513844,5.52 15.4713844,5.36 L13.8713844,2.56 C13.7913844,2.48 13.6313844,2.4 13.3913844,2.48 L11.3913844,3.28 C10.9913844,2.96 10.5113844,2.72 10.0313844,2.48 L9.71138439,0.4 C9.79138439,0.16 9.55138439,0 9.39138439,0 L6.19138439,0 C6.03138439,0 5.79138439,0.16 5.79138439,0.32 L5.47138439,2.48 C4.99138439,2.64 4.59138439,2.96 4.11138439,3.28 L2.19138439,2.48 C1.95138439,2.4 1.79138439,2.48 1.63138439,2.64 L0.0313843876,5.44 C-0.0486156124,5.52 0.0313843876,5.76 0.191384388,5.92 L1.87138439,7.2 C1.87138439,7.44 1.79138439,7.68 1.79138439,8 C1.79138439,8.32 1.79138439,8.56 1.87138439,8.8 L0.191384388,10.16 C0.0313843876,10.32 0.0313843876,10.48 0.111384388,10.64 L1.71138439,13.44 C1.79138439,13.52 1.95138439,13.6 2.19138439,13.52 L4.19138439,12.72 C4.59138439,13.04 5.07138439,13.28 5.55138439,13.52 L5.87138439,15.6 C5.87138439,15.76 6.03138439,15.92 6.27138439,15.92 L9.47138439,15.92 C9.63138439,15.92 9.87138439,15.76 9.87138439,15.6 L10.1913844,13.52 C10.6713844,13.28 11.1513844,13.04 11.5513844,12.72 L13.5513844,13.52 C13.7113844,13.6 13.9513844,13.52 14.0313844,13.36 L15.6313844,10.56 C15.7113844,10.4 15.7113844,10.16 15.5513844,10.08 L13.7113844,8.8 L13.7113844,8.8 Z M7.79138439,10.8 C6.27138439,10.8 4.99138439,9.52 4.99138439,8 C4.99138439,6.48 6.27138439,5.2 7.79138439,5.2 C9.31138439,5.2 10.5913844,6.48 10.5913844,8 C10.5913844,9.52 9.31138439,10.8 7.79138439,10.8 L7.79138439,10.8 Z" id="Shape"></path>
            </g>
        </g>
    </g>
</svg>