<?xml version="1.0" encoding="UTF-8"?>
<svg width="14px" height="14px" viewBox="0 0 14 14" version="1.1" xmlns="http://www.w3.org/2000/svg" xmlns:xlink="http://www.w3.org/1999/xlink">
    <!-- Generator: Sketch 44.1 (41455) - http://www.bohemiancoding.com/sketch -->
    <title>settings</title>
    <desc>Created with Sketch.</desc>
    <defs></defs>
    <g id="Layout-2New" stroke="none" stroke-width="1" fill="none" fill-rule="evenodd">
        <g id="CardWidget_Layout3" transform="translate(-1065.000000, -155.000000)" fill="#D4D4D4">
            <g id="Card8" transform="translate(750.000000, 145.000000)">
                <g id="settings" transform="translate(315.000000, 10.000000)">
                    <path d="M12.18,7.7 C12.18,7.49 12.25,7.28 12.25,7 C12.25,6.72 12.25,6.51 12.18,6.3 L13.65,5.11 C13.79,4.97 13.79,4.83 13.72,4.69 L12.32,2.24 C12.25,2.17 12.11,2.1 11.9,2.17 L10.15,2.87 C9.8,2.59 9.38,2.38 8.96,2.17 L8.68,0.35 C8.75,0.14 8.54,0 8.4,0 L5.6,0 C5.46,0 5.25,0.14 5.25,0.28 L4.97,2.17 C4.55,2.31 4.2,2.59 3.78,2.87 L2.1,2.17 C1.89,2.1 1.75,2.17 1.61,2.31 L0.21,4.76 C0.14,4.83 0.21,5.04 0.35,5.18 L1.82,6.3 C1.82,6.51 1.75,6.72 1.75,7 C1.75,7.28 1.75,7.49 1.82,7.7 L0.35,8.89 C0.21,9.03 0.21,9.17 0.28,9.31 L1.68,11.76 C1.75,11.83 1.89,11.9 2.1,11.83 L3.85,11.13 C4.2,11.41 4.62,11.62 5.04,11.83 L5.32,13.65 C5.32,13.79 5.46,13.93 5.67,13.93 L8.47,13.93 C8.61,13.93 8.82,13.79 8.82,13.65 L9.1,11.83 C9.52,11.62 9.94,11.41 10.29,11.13 L12.04,11.83 C12.18,11.9 12.39,11.83 12.46,11.69 L13.86,9.24 C13.93,9.1 13.93,8.89 13.79,8.82 L12.18,7.7 L12.18,7.7 Z M7,9.45 C5.67,9.45 4.55,8.33 4.55,7 C4.55,5.67 5.67,4.55 7,4.55 C8.33,4.55 9.45,5.67 9.45,7 C9.45,8.33 8.33,9.45 7,9.45 L7,9.45 Z" id="Shape"></path>
                </g>
            </g>
        </g>
    </g>
</svg>