<?xml version="1.0" encoding="UTF-8" standalone="no"?>
<svg width="16px" height="16px" viewBox="0 0 16 16" version="1.1" xmlns="http://www.w3.org/2000/svg" xmlns:xlink="http://www.w3.org/1999/xlink">
    <!-- Generator: Sketch 43.2 (39069) - http://www.bohemiancoding.com/sketch -->
    <title>Cards</title>
    <desc>Created with Sketch.</desc>
    <defs></defs>
    <g id="Bookmark" stroke="none" stroke-width="1" fill="none" fill-rule="evenodd">
        <g id="Bookmark_Setting-Add-Layers-Set" transform="translate(-283.000000, -328.000000)" fill="#666666">
            <g id="Setting" transform="translate(220.000000, 112.000000)">
                <g id="Bookmake" transform="translate(30.000000, 144.000000)">
                    <g id="Display-bookmarks-as" transform="translate(0.000000, 36.000000)">
                        <g id="Cards" transform="translate(0.000000, 29.000000)">
                            <path d="M42,8.00292933 C42,7.44902676 42.4378814,7 43.0029293,7 L47.9970707,7 C48.5509732,7 49,7.43788135 49,8.00292933 L49,12.9970707 C49,13.5509732 48.5621186,14 47.9970707,14 L43.0029293,14 C42.4490268,14 42,13.5621186 42,12.9970707 L42,8.00292933 Z M42,17.0029293 C42,16.4490268 42.4378814,16 43.0029293,16 L47.9970707,16 C48.5509732,16 49,16.4378814 49,17.0029293 L49,21.9970707 C49,22.5509732 48.5621186,23 47.9970707,23 L43.0029293,23 C42.4490268,23 42,22.5621186 42,21.9970707 L42,17.0029293 Z M33,8.00292933 C33,7.44902676 33.4378814,7 34.0029293,7 L38.9970707,7 C39.5509732,7 40,7.43788135 40,8.00292933 L40,12.9970707 C40,13.5509732 39.5621186,14 38.9970707,14 L34.0029293,14 C33.4490268,14 33,13.5621186 33,12.9970707 L33,8.00292933 Z M33,17.0029293 C33,16.4490268 33.4378814,16 34.0029293,16 L38.9970707,16 C39.5509732,16 40,16.4378814 40,17.0029293 L40,21.9970707 C40,22.5509732 39.5621186,23 38.9970707,23 L34.0029293,23 C33.4490268,23 33,22.5621186 33,21.9970707 L33,17.0029293 Z"></path>
                        </g>
                    </g>
                </g>
            </g>
        </g>
    </g>
</svg>